<svg width="400" height="400" xmlns="http://www.w3.org/2000/svg">
    <defs>
      <radialGradient id="g" cx="50%" cy="50%">
        <stop offset="0%" style="stop-color:#667eea;stop-opacity:1"></stop>
        <stop offset="100%" style="stop-color:#764ba2;stop-opacity:0.3"></stop>
      </radialGradient>
    </defs>
  <path d="M315.9110991546882,231.0582854123025 L228.97777478867204,207.7645713530756 M284.8528137423857,284.8528137423857 L221.21320343559643,221.21320343559643 M231.0582854123025,315.9110991546882 L207.7645713530756,228.97777478867204 M168.94171458769753,315.9110991546882 L192.2354286469244,228.97777478867204 M115.14718625761431,284.8528137423857 L178.78679656440357,221.21320343559643 M84.08890084531181,231.05828541230252 L171.02222521132796,207.76457135307564 M84.0889008453118,168.9417145876975 L171.02222521132796,192.2354286469244 M115.14718625761425,115.14718625761435 L178.78679656440357,178.78679656440357 M168.94171458769753,84.0889008453118 L192.2354286469244,171.02222521132796 M231.05828541230244,84.08890084531178 L207.7645713530756,171.02222521132794 M284.8528137423857,115.14718625761428 L221.21320343559643,178.78679656440357 M315.91109915468815,168.94171458769742 L228.97777478867204,192.23542864692436 " stroke="url(#g)" stroke-width="6" stroke-linecap="round" fill="none"></path><path d="M200,-12 L212,0 L200,12 L188,0 Z" transform="translate(0,200)" fill="#000"></path></svg>
